Patient4_TMGait_0pt7_02_left_02_EMG.mot
version=1
nRows=13
nColumns=33
inDegrees=no
endheader
time	1LAddLong	2LGlutMax	3LGlutMed	4LIliopsoas	5LSemiMemb	6LBicFemLong	7LRecFem	8LVastMed	9LVastLat	10LGasMed	11LTibAnt	12lTibPost	13LPeroneusLong	14LSol	15LExtDigLong	16LFlexDigLong	17RAddLong	18RGlutMax	19RGlutMed	20RIliopsoas	21RSemiMemb	22RBicFemLong	23RRecFem	24RVastMed	25RVastLat	26RGasMed	27RTibAnt	28RTibPost	29RPeroneusLong	30RSol	31RExtDigLong	32RFlexDigLong
2.645	-0.016174	-0.4335	-0.053711	-0.004272	-0.10239	-0.007935	-0.13504	0.019379	-0.057983	-0.1268	0.016937	-0.010986	-0.20935	0.06485	0.024719	0.19608	0.015259	-0.17166	0.26657	-0.16007	-0.69412	0.1648	-0.027161	-0.24826	-0.02121	-0.001373	0.048523	-0.001221	0.054321	-0.034943	-0.00473	-0.011597
2.646	-0.006866	-0.41794	-0.041199	-0.000153	-0.079193	-0.071869	-0.17456	0.020142	-0.058289	-0.21637	0.006866	-0.004883	-0.15488	0.058899	0.044556	0.23224	0.004425	-0.16632	0.18601	-0.046234	-0.57083	0.61783	-0.12802	-0.13138	0.091248	0.000305	0.056305	-0.003204	0.096893	-0.028687	-0.003357	-0.010681
2.647	0.006714	-0.41626	-0.021667	0.001373	-0.001221	-0.086975	-0.20706	0.021515	-0.065002	-0.14938	0.003052	0.007935	-0.15595	0.10895	0.028992	-0.020447	0.010681	-0.13031	0.092773	0.006256	-0.26199	0.71411	-0.26855	-0.029297	0.12146	-0.000153	-0.009155	0.001373	-0.11688	-0.018158	-0.002899	-0.003357
2.648	0.010376	-0.40192	-0.053253	0.002747	0.0914	-0.041351	-0.20432	0.014954	-0.058136	-0.19455	0.004425	0.002289	-0.068512	0.19134	0.035248	0.2829	-0.010834	-0.10117	0.11383	0.099487	-0.088806	0.42465	-0.41016	0.16769	0.15503	0.007477	-0.063629	-0.008545	-0.50308	-0.024109	-0.001373	-0.002594
2.649	0.070801	-0.41458	-0.064392	-0.003357	0.098724	-0.028992	-0.24933	0.004578	-0.067444	-0.1738	0.005188	0.013428	-0.024872	0.19608	0.037079	0.31525	-0.031433	-0.13397	0.13153	0.15533	-0.41046	0.37857	-0.44128	0.16907	0.21637	0.001221	-0.073395	0.002136	-0.66544	-0.084991	0.006561	-0.002136
2.65	-0.018921	-0.43701	-0.10712	-0.013275	0.063477	0.014954	-0.29327	0.014801	-0.078888	-0.037231	-0.005951	0.016022	0.055237	0.22492	0.037689	-0.20523	-0.10056	-0.091858	0.042572	0.064087	-0.63782	0.49027	-0.41733	0.13901	0.25009	0.003967	-0.052643	-0.00351	-0.071869	-0.090637	-0.00412	0.002289
2.651	-0.018921	-0.47211	-0.15625	0.005798	0.029297	0.037231	-0.31662	0.019684	-0.077972	0.062561	-0.012054	0.038757	0.15823	-0.048065	0.030975	-0.7048	-0.12375	-0.2507	-0.018921	0.043182	-0.33066	0.36057	-0.31693	0.097198	0.13306	0.007629	-0.056	-0.000305	0.97244	-0.082855	-0.001526	-0.002441
2.652	0.002747	-0.42938	-0.15808	0.010834	-0.024414	0.051422	-0.32089	0.016327	-0.059357	0.51605	-0.009766	0.04837	0.072021	-0.1619	0.022278	0.121	-0.12451	-0.34119	-0.034027	0.11093	0.48431	0.36224	-0.23086	0.11124	0.077057	-0.001221	0.20523	0.002594	0.72662	-0.028076	-0.003052	-0.003204
2.653	-0.005493	-0.39795	-0.082245	-0.018463	-0.074005	0.085907	-0.37567	0.019379	-0.06424	0.72861	0.006866	0.012817	-0.011597	-0.14313	-0.011444	-0.23346	-0.073242	-0.44388	0.011139	-0.000458	0.6105	0.16083	-0.20142	0.15076	0.032959	0.001221	0.1651	-0.001221	0.4335	0.037994	-0.002136	-0.001373
2.654	-0.003357	-0.3772	0.057373	-0.004578	-0.089417	0.088043	-0.43228	0.011749	-0.045471	0.74432	0.013123	-0.052032	-0.038452	-0.17914	-0.034637	0.23285	0.005341	-0.48355	-0.042725	0.001678	0.55191	-0.065002	-0.22217	0.17532	0.050659	-0.00061	0.093079	-0.000763	0.46097	0.032959	-0.00351	-0.016632
2.655	-0.003357	-0.37048	0.041504	-0.00946	0.052795	0.074005	-0.43198	0.01297	-0.046234	0.96893	0.010529	-0.017242	-0.008545	-0.12665	0.00351	0.32044	0.027924	-0.52475	-0.099792	0.080719	0.52078	-0.084839	-0.27664	0.30701	0.027313	0.006104	0.084534	-0.003662	0.2066	-0.013428	0.000305	-0.001984
2.656	0.010071	-0.34531	-0.008545	0.011749	0.080109	0.030823	-0.44571	0.007935	-0.028534	0.19836	0.000458	0.033417	-0.008392	-0.030518	-0.005035	0.035553	0.045929	-0.47287	-0.11444	0.062714	0.43915	-0.023346	-0.094757	0.30991	-0.053253	-0.001678	0.074768	-0.003967	0.000763	-0.03418	-0.001068	-0.007782
2.657	-0.002136	-0.34515	-0.04425	0.001678	0.013123	-0.010223	-0.48294	0.013885	-0.038452	-0.86655	-0.008087	0.004883	-0.059509	0.10498	-0.018005	-0.034485	0.025177	-0.32044	-0.039978	0.053864	0.47897	-0.093689	0.045471	0.24551	-0.2092	0.002289	0.065613	-0.002441	-0.014191	-0.018463	-0.001526	-0.013428
